# xmcd CD database file
#
# Track frame offsets:
#	150
#	16264
#	36320
#	54468
#	78983
#	98218
#	111628
#	130250
#	142295
#	173371
#	186587
#	202728
#
# Disc length: 2915 seconds
#
# Revision: 0
# Processed by: cddbd v1.5.2PL0 Copyright (c) Steve Scherf et al.
# Submitted via: CDex 1.60beta1-cs1
#
DISCID=a70b610c
DTITLE=boogiejazz - Para Simone AMORim
DYEAR=1900
DGENRE=Jazz
TTITLE0='Andorinha' 1 (Tom Jobim)
TTITLE1='Tereza My Love' (Tom Jobim)
TTITLE2='Sabiá' (Tom Jobim)
TTITLE3='Brazil' (Tom Jobim, Electric piano)
TTITLE4='Lígia' (Tom Jobim)
TTITLE5='Ângela' (Tom Jobim)
TTITLE6='Minha Namorada' (Quarteto em Cy and Vinícius de Moraes)
TTITLE7='Carta ao Tom 74' (Quarteto em Cy and Vinícius de Moraes)
TTITLE8='Samba da Bênção' (Vinícius de Moraes)
TTITLE9='Coisa Mais Linda' (João Gilberto)
TTITLE10='Bolero de Satã' (Elis Regina and Cauby Peixoto)
TTITLE11='Andorinha' 2 (Tom Jobim)
EXTD=
EXTT0=
EXTT1=
EXTT2=
EXTT3=
EXTT4=
EXTT5=
EXTT6=
EXTT7=
EXTT8=
EXTT9=
EXTT10=
EXTT11=
PLAYORDER=
